<svg width="24" height="24" viewBox="0 0 24 24" fill="none" xmlns="http://www.w3.org/2000/svg">
<path d="M3.07018 9.35088C4.98246 14.7544 9.26316 19.0175 14.6667 20.9298L16.5789 17.0877L20 17.5439V19.9649C18.0702 19.8596 16.2807 19.4386 14.5614 18.7368C10.2807 17 7 13.7368 5.26316 9.45614C4.5614 7.73684 4.14035 5.92982 4.03509 4H6.45614L6.91228 7.4386L3.07018 9.35088ZM5.63158 10.3158L9.08772 8.59649L8.21053 2H2.01754C1.87719 4.89474 2.38596 7.7193 3.40351 10.2281C5.33333 14.9298 9.10526 18.6667 13.7895 20.5965C16.2982 21.614 19.1053 22.1228 22 21.9825V15.7895L15.4211 14.9123L13.7018 18.3684C10.1228 16.6842 7.31579 13.8947 5.63158 10.3158Z" fill="#333333"/>
</svg>
